<?xml version="1.0" encoding="UTF-8"?>
<svg version="1.1" xmlns="http://www.w3.org/2000/svg" width="1024" height="1024">
<path d="M0 0 C337.92 0 675.84 0 1024 0 C1024 337.92 1024 675.84 1024 1024 C686.08 1024 348.16 1024 0 1024 C0 686.08 0 348.16 0 0 Z " fill="#F9F8F6" transform="translate(0,0)"/>
<path d="M0 0 C7.89334641 4.30211893 15.17272242 11.40519257 18.63907242 19.78760338 C19.96177981 24.44992005 19.67970184 29.29717911 19.65380859 34.10668945 C19.66169403 35.91292282 19.66169403 35.91292282 19.66973877 37.75564575 C19.68064698 41.04311149 19.67813565 44.33021224 19.66860151 47.6176722 C19.660971 51.07098382 19.66806038 54.52427219 19.67276001 57.97758484 C19.67820993 63.77863904 19.67104839 69.57957848 19.65673828 75.38061523 C19.64043626 82.06588637 19.64568538 88.75088263 19.6622175 95.43614703 C19.67588189 101.19438235 19.67772726 106.95253544 19.66990149 112.71078175 C19.66524908 116.14165344 19.66453198 119.57239648 19.67451096 123.00325966 C19.68216562 126.83479754 19.67046299 130.66581511 19.65380859 134.49731445 C19.65988129 135.6192067 19.66595398 136.74109894 19.67221069 137.89698792 C19.4874918 160.94242914 4.34204485 174.05633699 -10.92211914 189.36083984 C-11.99142123 190.43643118 -13.06054302 191.51220178 -14.12950134 192.58813477 C-17.5893769 196.0687274 -21.05429016 199.54428183 -24.51953125 203.01953125 C-25.72260411 204.22666115 -26.92564686 205.43382107 -28.1286602 206.64101028 C-33.77513748 212.30645273 -39.42396447 217.96953921 -45.07573706 223.62969911 C-51.56678405 230.13054427 -58.04943394 236.63961736 -64.52521044 243.15567338 C-69.55882425 248.21950649 -74.60014676 253.27558241 -79.64723867 258.32598174 C-82.65035164 261.33143447 -85.65013136 264.34003785 -88.6417408 267.35694504 C-91.45250296 270.19110147 -94.27277432 273.01544707 -97.10036659 275.83280945 C-98.13011029 276.86206077 -99.15649993 277.89468167 -100.1790657 278.93106461 C-109.52797902 288.39910458 -119.83302981 296.88886582 -133.609375 297.43359375 C-150.81488561 296.93582426 -162.30528786 283.87042965 -173.61328125 272.48046875 C-175.03480251 271.05842821 -176.45684376 269.63690729 -177.87937927 268.21588135 C-180.84336423 265.25180711 -183.80215139 262.28267233 -186.75708008 259.30957031 C-190.55175 255.49207977 -194.35754049 251.68590761 -198.16699314 247.8831749 C-201.09691627 244.9565835 -204.02184851 242.0250467 -206.94517326 239.09186554 C-208.34772978 237.68545307 -209.75164548 236.28039473 -211.15692329 234.87670135 C-213.11033174 232.92366177 -215.05714411 230.96428572 -217.00219727 229.00292969 C-217.58650513 228.42109924 -218.17081299 227.8392688 -218.77282715 227.23980713 C-222.734375 223.2248495 -222.734375 223.2248495 -222.734375 220.99609375 C-223.63675903 220.60091553 -223.63675903 220.60091553 -224.55737305 220.19775391 C-226.8642699 218.92439445 -227.93428309 217.81366564 -229.56640625 215.76953125 C-233.03105576 211.67183695 -236.77129505 207.95166491 -240.62109375 204.22265625 C-241.90182742 202.97279427 -243.18242386 201.72279166 -244.46289062 200.47265625 C-246.44377909 198.54111202 -248.42862617 196.61462946 -250.42700195 194.70117188 C-266.39118961 179.38558446 -266.39118961 179.38558446 -267.234375 167.93359375 C-266.15302677 159.41797642 -262.1043212 152.70665099 -255.734375 146.99609375 C-249.25298361 142.58393036 -244.07210022 140.87772919 -236.24438477 140.85424805 C-234.26566124 140.84369637 -234.26566124 140.84369637 -232.2469635 140.83293152 C-231.19187938 140.83020768 -231.19187938 140.83020768 -230.11548042 140.82742882 C-227.89776992 140.82022147 -225.68027538 140.80451917 -223.46263123 140.78608704 C-217.15781804 140.73384902 -210.85312017 140.68576728 -204.5480957 140.67016602 C-200.68527873 140.65998399 -196.82300295 140.63039933 -192.96040154 140.58884621 C-191.5002855 140.57666803 -190.04009253 140.57139039 -188.57992744 140.57364464 C-169.82178172 140.59545839 -156.47999805 135.12705442 -143.15955561 121.87695831 C-141.48966963 120.19307002 -139.82967387 118.49978651 -138.16967773 116.80615234 C-136.95367791 115.58081829 -135.73674172 114.35641288 -134.51895142 113.13285828 C-131.91602133 110.51399938 -129.3193819 107.88911907 -126.72750664 105.25931931 C-122.62307071 101.09560909 -118.50251785 96.9480966 -114.37940979 92.80288696 C-104.14582246 82.5094741 -93.93353174 72.19500047 -83.72509766 61.87664795 C-75.77867486 53.84516673 -67.82649235 45.81956731 -59.85700566 37.81096327 C-55.76347384 33.69603101 -51.68202285 29.56959912 -47.60951412 25.43386436 C-45.06910824 22.85919966 -42.51821599 20.29512106 -39.96440506 17.73375893 C-38.78857472 16.55020722 -37.61703432 15.36237446 -36.45031548 14.16983986 C-26.37396003 3.87832515 -15.29257203 -5.61455859 0 0 Z " fill="#0C54A0" transform="translate(407.734375,235.00390625)"/>
<path d="M0 0 C1.07138466 -0.0076664 1.07138466 -0.0076664 2.16441345 -0.01548767 C4.53929934 -0.02944431 6.91389616 -0.02841938 9.28881836 -0.02612305 C10.94917406 -0.03001279 12.60952877 -0.03434804 14.2698822 -0.03910828 C17.76458948 -0.04658789 21.25919585 -0.04627112 24.75390625 -0.04101562 C29.18478458 -0.03528383 33.61523627 -0.0519886 38.04604435 -0.0753603 C41.48581778 -0.09027687 44.92549344 -0.09094425 48.3652935 -0.08785057 C49.99520129 -0.08835703 51.62511557 -0.09346459 53.25499153 -0.10366249 C74.82704549 -0.22184254 96.12504651 3.11858621 112.69116211 18.2121582 C116.31524038 22.02258092 118.94230344 26.0595025 121.44116211 30.6496582 C121.92383545 31.5312561 121.92383545 31.5312561 122.41625977 32.43066406 C127.09845448 41.58335193 128.54902208 50.70531753 128.37866211 60.8996582 C128.38188477 61.87161133 128.38510742 62.84356445 128.38842773 63.8449707 C128.27032974 79.82040824 123.06637921 93.69957694 112.10913086 105.35668945 C94.76229375 122.18859262 70.79124654 123.45602434 48.00366211 123.3371582 C42.41428711 123.3165332 36.82491211 123.2959082 31.06616211 123.2746582 C31.06616211 143.4046582 31.06616211 163.5346582 31.06616211 184.2746582 C17.86616211 184.2746582 4.66616211 184.2746582 -8.93383789 184.2746582 C-8.97893746 160.57934546 -9.01579946 136.88406733 -9.03746223 113.18872261 C-9.04778676 102.18724153 -9.06186949 91.18578896 -9.0847168 80.18432617 C-9.10461474 70.59849494 -9.11754576 61.01268434 -9.12201488 51.42683303 C-9.12462837 46.3484548 -9.13079548 41.27013563 -9.145298 36.19177628 C-9.15882519 31.41647417 -9.16307044 26.64125572 -9.16005325 21.86593628 C-9.1606056 20.10908428 -9.16461191 18.35222962 -9.17224884 16.59539413 C-9.18213414 14.20502207 -9.1798305 11.81496984 -9.17434692 9.42459106 C-9.18017261 8.72226416 -9.18599829 8.01993725 -9.19200051 7.29632771 C-9.14723908 0.12522969 -6.64698834 0.02365955 0 0 Z " fill="#101919" transform="translate(795.933837890625,434.725341796875)"/>
<path d="M0 0 C15.18 0 30.36 0 46 0 C48.05690517 4.79944539 49.86721087 9.36477513 51.49609375 14.29296875 C51.72539078 14.98373505 51.95468781 15.67450134 52.19093323 16.38619995 C52.68455022 17.87454171 53.17677323 19.3633464 53.66772461 20.85256958 C54.45474205 23.23979966 55.24547378 25.62577226 56.03710938 28.01147461 C57.14450614 31.34994834 58.25042761 34.68890458 59.35498047 38.02832031 C61.89570284 45.70891414 64.44549693 53.38647955 67 61.0625 C67.37102341 62.17821381 67.37102341 62.17821381 67.74954224 63.31646729 C71.62695857 74.97025485 75.6023622 86.58801239 79.61221313 98.19677734 C84.26632871 111.68943565 88.69298893 125.25218998 93.08300781 138.83276367 C97.08097544 151.19803233 101.16609808 163.51985709 105.51245117 175.76782227 C105.84607666 176.71197998 106.17970215 177.6561377 106.5234375 178.62890625 C106.81138184 179.43400635 107.09932617 180.23910645 107.39599609 181.06860352 C108 183 108 183 108 185 C94.8 185 81.6 185 68 185 C62.0625 166.125 62.0625 166.125 60.19165039 160.16845703 C59.70211877 158.61486691 59.21246262 157.06131602 58.72265625 155.5078125 C58.46867065 154.69755615 58.21468506 153.8872998 57.95300293 153.05249023 C56.68892529 148.94353436 56.68892529 148.94353436 55 145 C33.55 145 12.1 145 -10 145 C-14.29 158.2 -18.58 171.4 -23 185 C-36.2 185 -49.4 185 -63 185 C-60.7500055 174.87502475 -60.7500055 174.87502475 -59.25097656 170.48828125 C-58.9153772 169.49854309 -58.57977783 168.50880493 -58.23400879 167.48907471 C-57.87319214 166.44080505 -57.51237549 165.3925354 -57.140625 164.3125 C-56.75982788 163.19381531 -56.37903076 162.07513062 -55.98669434 160.92254639 C-54.74562485 157.28014621 -53.49786646 153.64007655 -52.25 150 C-51.38217635 147.45898659 -50.51579867 144.91748093 -49.64941406 142.37597656 C-47.49684139 136.06418886 -45.33844529 129.75440942 -43.17871094 123.44506836 C-41.50135684 118.54259452 -39.82847984 113.6385986 -38.15625 108.734375 C-35.90890373 102.14492411 -33.65877518 95.55643226 -31.40625 88.96875 C-28.65718692 80.92826482 -25.91565306 72.88522931 -23.1763916 64.84140015 C-20.65187776 57.4284537 -18.12436591 50.01653447 -15.59460449 42.6053772 C-13.94848779 37.78243185 -12.30548312 32.958448 -10.66583252 28.13330078 C-9.74178765 25.41684272 -8.81427466 22.70157958 -7.88562012 19.98669434 C-7.27275695 18.1916538 -6.66412822 16.39516925 -6.05566406 14.59863281 C-5.69182617 13.53741211 -5.32798828 12.47619141 -4.953125 11.3828125 C-4.49147949 10.02760498 -4.49147949 10.02760498 -4.02050781 8.64501953 C-2.8765321 5.67998774 -1.42127365 2.8425473 0 0 Z " fill="#101919" transform="translate(663,434)"/>
<path d="M0 0 C6.19900181 3.94282801 11.27656026 9.10452759 16.34765625 14.375 C18.41355128 16.41959715 20.48981139 18.30877145 22.69139099 20.19776917 C26.82167847 23.79819783 30.72281815 27.5814207 34.59008789 31.46069336 C35.65762047 32.52559746 35.65762047 32.52559746 36.74671936 33.61201477 C39.07453554 35.93546668 41.39871797 38.26251363 43.72265625 40.58984375 C45.35340537 42.21991827 46.98430283 43.84984441 48.61534119 45.47962952 C52.02358984 48.88640855 55.43003533 52.29497758 58.83520508 55.70483398 C63.18482223 60.06014794 67.53891383 64.41095661 71.89437199 68.76042843 C75.26004951 72.12248049 78.62332691 75.48692545 81.98589897 78.85208321 C83.58982532 80.45667333 85.19448569 82.06053011 86.79991341 83.66361809 C89.04881632 85.90996177 91.29445561 88.15952016 93.53930664 90.40991211 C94.193526 91.06210724 94.84774536 91.71430237 95.52178955 92.38626099 C99.33816002 96.21996888 102.96931441 100.16698147 106.50025082 104.26545048 C109.025376 107.1859086 111.67098441 109.9980913 114.30078125 112.82421875 C117.42230862 116.82120897 118.33972913 120.83186984 118.875 125.8125 C118.99617187 126.78832031 119.11734375 127.76414062 119.2421875 128.76953125 C118.54911225 138.01426081 111.86333145 143.6073032 105.5 149.6875 C103.79992164 151.33501184 102.1019335 152.98468389 100.40625 154.63671875 C99.28186523 155.71505981 99.28186523 155.71505981 98.13476562 156.81518555 C95.91010538 159.09200217 93.97768946 161.50830583 92 164 C90.2530629 165.61235433 88.45883582 167.17471387 86.625 168.6875 C85.25214844 169.83798828 85.25214844 169.83798828 83.8515625 171.01171875 C78.68656709 174.61306487 73.25302974 175.92353413 67 175 C59.76290425 172.10766007 55.11857568 167.66091334 49.71484375 162.140625 C48.424963 160.84581207 48.424963 160.84581207 47.10902405 159.52484131 C44.37567348 156.77581027 41.65679226 154.01293016 38.9375 151.25 C37.1069897 149.40798928 35.27561752 147.56683463 33.44335938 145.7265625 C31.67891299 143.94868499 29.91521614 142.17006323 28.15234375 140.390625 C27.33861801 139.56951233 26.52489227 138.74839966 25.68650818 137.90240479 C22.19087495 134.34883941 18.76427644 130.7798746 15.51806641 126.99609375 C11.45734218 122.28838219 7.01505724 118.00138108 2.55859375 113.671875 C0.73947776 111.88488447 -1.07885785 110.09709925 -2.89648438 108.30859375 C-5.72866581 105.52571243 -8.56490754 102.74766438 -11.41479492 99.98291016 C-14.18787035 97.2891476 -16.94088419 94.57613862 -19.69140625 91.859375 C-20.53530411 91.04958191 -21.37920197 90.23978882 -22.24867249 89.40545654 C-29.49670805 82.1908617 -36.07443279 72.90559183 -36.16113281 62.32006836 C-36.17074036 61.37155502 -36.1803479 60.42304169 -36.19024658 59.44578552 C-36.19449646 58.42082474 -36.19874634 57.39586395 -36.203125 56.33984375 C-36.20882507 55.28019913 -36.21452515 54.2205545 -36.22039795 53.12879944 C-36.22985133 50.88185627 -36.23638327 48.63489921 -36.24023438 46.38793945 C-36.24989338 42.9751709 -36.28089475 39.56301662 -36.3125 36.15039062 C-36.31903499 33.96354523 -36.32428351 31.77669554 -36.328125 29.58984375 C-36.3404718 28.57905258 -36.3528186 27.56826141 -36.36553955 26.52684021 C-36.33796193 17.60802589 -35.11989195 9.12138033 -28.72265625 2.47265625 C-20.26829392 -4.75476914 -9.7899748 -4.84309707 0 0 Z " fill="#0E9D5B" transform="translate(207,536)"/>
<path d="M0 0 C6.28155068 3.67956944 11.46349212 9.6629787 13.75 16.5625 C14.01742554 19.59536743 14.01742554 19.59536743 14.04052734 23.01416016 C14.05328705 24.29964752 14.06604675 25.58513489 14.07919312 26.90957642 C14.08225225 28.30690357 14.08447922 29.70423276 14.0859375 31.1015625 C14.09237264 32.54780201 14.09910153 33.99404025 14.10610962 35.4402771 C14.11807038 38.47144583 14.12179201 41.50250075 14.12060547 44.53369141 C14.12040308 48.39014109 14.14762599 52.24584717 14.18214989 56.10212135 C14.20455944 59.09129077 14.20843865 62.08028573 14.20738602 65.06953049 C14.20972395 66.48950114 14.21844386 67.90947797 14.23405075 69.32936478 C14.39017829 85.00970544 10.42727899 94.72974631 -0.34008789 105.87963867 C-1.87915292 107.41839129 -3.4235904 108.95178443 -4.97265625 110.48046875 C-5.7957579 111.30074051 -6.61885956 112.12101227 -7.46690369 112.96614075 C-10.07740675 115.56553311 -12.69479299 118.15786454 -15.3125 120.75 C-17.07403145 122.50148685 -18.8351036 124.25343576 -20.59570312 126.00585938 C-24.51822868 129.90861308 -28.44492936 133.80709961 -32.37664795 137.70059204 C-33.98207853 139.29621523 -35.5762912 140.9019409 -37.16723633 142.51196289 C-41.7738813 147.04732933 -47.32214435 149.67705978 -53.8125 149.875 C-62.70796081 149.75846558 -70.90384095 145.76684544 -77.25 139.5625 C-77.25 138.9025 -77.25 138.2425 -77.25 137.5625 C-77.78230225 137.35399414 -78.31460449 137.14548828 -78.86303711 136.93066406 C-82.20592425 135.01458147 -84.73943504 132.37823951 -87.44140625 129.671875 C-88.32118385 128.79852509 -88.32118385 128.79852509 -89.21873474 127.90753174 C-90.45590444 126.67609534 -91.69047475 125.44204267 -92.92260742 124.20556641 C-94.80069525 122.32432458 -96.69168734 120.45677884 -98.58398438 118.58984375 C-99.78726922 117.38883271 -100.98976937 116.18703487 -102.19140625 114.984375 C-102.75396622 114.43102478 -103.31652618 113.87767456 -103.89613342 113.30755615 C-108.58077383 108.56759081 -111.67750275 104.01310326 -111.6875 97.125 C-111.70683594 96.23941406 -111.72617187 95.35382813 -111.74609375 94.44140625 C-110.59747818 87.77581829 -106.11185744 82.90578259 -101.625 78.125 C-101.13515625 77.58423828 -100.6453125 77.04347656 -100.140625 76.48632812 C-98.88959767 75.13446663 -97.57430533 73.84266182 -96.25 72.5625 C-95.59 72.5625 -94.93 72.5625 -94.25 72.5625 C-94.25 71.9025 -94.25 71.2425 -94.25 70.5625 C-92.97131348 69.30752563 -92.97131348 69.30752563 -91.08789062 67.77587891 C-85.30883852 62.85646951 -80.05180261 57.4432753 -74.72212219 52.04865646 C-72.80698971 50.11124966 -70.88770266 48.17804835 -68.96716309 46.2460022 C-63.51232831 40.75780437 -58.06178978 35.26539531 -52.62158203 29.76269531 C-49.27965058 26.38297087 -45.93032375 23.01072581 -42.57624817 19.64305496 C-41.30729569 18.36609268 -40.0411162 17.08636814 -38.77787781 15.8037529 C-16.2200414 -7.0942527 -16.2200414 -7.0942527 0 0 Z " fill="#0E9D5A" transform="translate(413.25,483.4375)"/>
<path d="M0 0 C13.86 0 27.72 0 42 0 C56.765625 29.53125 56.765625 29.53125 58.37524414 32.7505188 C59.43559569 34.87120159 60.49597968 36.99186815 61.55639648 39.11251831 C63.8469406 43.69329067 66.13723636 48.27418548 68.42578125 52.85595703 C68.78675903 53.57847656 69.14773682 54.30099609 69.51965332 55.04541016 C70.44623262 56.90013411 71.37254391 58.75499194 72.29882812 60.60986328 C74.76204719 65.5186262 77.25382025 70.41262094 79.75 75.3046875 C81 78 81 78 81 80 C81.66 80 82.32 80 83 80 C83.33 78.824375 83.66 77.64875 84 76.4375 C85.68021559 71.38900177 88.12645109 66.85768905 90.67382812 62.21240234 C93.47086843 57.07819548 96.02350597 51.85812408 98.5 46.5625 C102.20853886 38.64306724 106.05209075 30.80541612 109.99414062 23 C111.06099646 20.87871771 112.11751308 18.75251818 113.171875 16.625 C113.53015381 15.9033667 113.88843262 15.1817334 114.25756836 14.43823242 C114.93950274 13.06410544 115.62009751 11.68931248 116.29907227 10.3137207 C117.18405911 8.53477523 118.09133189 6.7669666 119 5 C119.33128906 4.11441406 119.66257812 3.22882813 120.00390625 2.31640625 C122 0 122 0 123.9304657 -0.43354797 C126.53417478 -0.58163748 129.09223407 -0.56100613 131.69921875 -0.48828125 C133.12449638 -0.47766914 133.12449638 -0.47766914 134.5785675 -0.46684265 C137.61567676 -0.4388367 140.65094735 -0.37608644 143.6875 -0.3125 C145.7454161 -0.28742516 147.80336107 -0.26461058 149.86132812 -0.24414062 C154.90826134 -0.18898955 159.95381888 -0.10267382 165 0 C156.61884161 16.94742211 156.61884161 16.94742211 152.5 24 C149.55888937 29.13350594 146.79049879 34.31230565 144.1875 39.625 C141.1039884 45.90892258 137.8168987 52.05794321 134.4375 58.1875 C129.03697339 67.99105336 123.86677661 77.90352507 118.77905273 87.87182617 C118.20227783 88.99693604 117.62550293 90.1220459 117.03125 91.28125 C116.73809402 91.87314621 116.44493805 92.46504242 116.14289856 93.07487488 C114.27717908 96.77578558 112.22229199 100.2117878 109.90332031 103.64892578 C99.78204027 119.24563702 99.33511248 133.77268277 99.71246338 151.71502686 C99.77597669 155.36977891 99.76996998 159.02447633 99.76953125 162.6796875 C99.77354413 169.79051959 99.88892408 176.88686906 100 184 C87.46 184 74.92 184 62 184 C62.27457031 177.83570313 62.27457031 177.83570313 62.5546875 171.546875 C63.63633584 136.64815775 60.98009748 110.89746388 41.83862305 80.59741211 C37.07082284 73.00321266 33.08157522 64.97638638 29 57 C28.26815865 55.57835869 27.5359903 54.15688565 26.8034668 52.7355957 C25.06625289 49.36026225 23.33554843 45.98163612 21.60644531 42.60214233 C15.9567566 31.56387804 10.26275515 20.5689609 4.13500977 9.78540039 C3.52677368 8.70633423 3.52677368 8.70633423 2.90625 7.60546875 C2.38514648 6.69510864 2.38514648 6.69510864 1.85351562 5.76635742 C1 4 1 4 0 0 Z " fill="#101919" transform="translate(460,435)"/>
<path d="M0 0 C12.21951378 8.76299793 23.39227687 20.43473536 33.07421875 31.91796875 C36.43480108 35.66028051 40.05360484 39.1542545 43.64672852 42.67211914 C47.2658578 46.23582368 49.14504114 48.11071601 49.375 53.1875 C49.2849115 59.4236262 46.56221915 63.3724742 42.35546875 67.7890625 C35.06597239 74.46972959 27.17247652 76.1958075 17.4609375 76.30078125 C16.73943512 76.308853 16.01793274 76.31692474 15.27456665 76.32524109 C13.74996299 76.33902748 12.22532916 76.34977381 10.70068359 76.35766602 C9.16087625 76.36914264 7.62110733 76.38952572 6.08154297 76.41918945 C-5.75313242 76.64673047 -16.38725077 75.88683077 -26 68.0625 C-32.4345535 61.58143166 -34.3108646 56.36107092 -34.3359375 47.32421875 C-34.3459227 46.06482231 -34.3459227 46.06482231 -34.35610962 44.77998352 C-34.36621029 43.00739727 -34.37092744 41.2347732 -34.37060547 39.4621582 C-34.37496914 36.7690462 -34.41128822 34.07758702 -34.44921875 31.38476562 C-34.45508962 29.65625556 -34.4590572 27.92773777 -34.4609375 26.19921875 C-34.47530853 25.40311691 -34.48967957 24.60701508 -34.50448608 23.78678894 C-34.44218093 16.05019158 -31.40549392 9.61814653 -26 4.0625 C-18.47407039 -1.42645279 -8.79216914 -5.20024638 0 0 Z " fill="#EC9840" transform="translate(205,683.9375)"/>
<path d="M0 0 C2.11598104 -0.00957024 4.23093268 -0.04050957 6.34667969 -0.07226562 C18.83694578 -0.17190975 29.86980283 1.33382749 39.28417969 10.24023438 C44.60629074 16.73704561 45.20973428 24.27694565 44.76074219 32.38867188 C43.84724548 39.77152233 41.26887727 44.97823101 35.47167969 49.67773438 C27.3296787 55.09553202 18.99283403 56.36371016 9.29199219 56.37304688 C7.37 56.37498047 7.37 56.37498047 5.40917969 56.37695312 C4.75304687 56.3748584 4.09691406 56.37276367 3.42089844 56.37060547 C1.39348055 56.36519246 -0.63372121 56.3706022 -2.66113281 56.37695312 C-4.57152344 56.37501953 -4.57152344 56.37501953 -6.52050781 56.37304688 C-7.68565918 56.37191895 -8.85081055 56.37079102 -10.05126953 56.36962891 C-12.71582031 56.24023438 -12.71582031 56.24023438 -13.71582031 55.24023438 C-13.81457201 53.55768203 -13.84380936 51.87099409 -13.84521484 50.18554688 C-13.848367 49.10772949 -13.85151917 48.02991211 -13.85476685 46.91943359 C-13.85274261 45.74654785 -13.85071838 44.57366211 -13.84863281 43.36523438 C-13.84958954 42.17043457 -13.85054626 40.97563477 -13.85153198 39.74462891 C-13.85221402 37.21256457 -13.85035809 34.6804985 -13.84619141 32.1484375 C-13.84084352 28.25712177 -13.84613564 24.36592148 -13.85253906 20.47460938 C-13.85187829 18.02148412 -13.85059713 15.56835893 -13.84863281 13.11523438 C-13.85065704 11.94234863 -13.85268127 10.76946289 -13.85476685 9.56103516 C-13.85161469 8.48321777 -13.84846252 7.40540039 -13.84521484 6.29492188 C-13.84441925 5.34085449 -13.84362366 4.38678711 -13.84280396 3.40380859 C-13.51270628 -2.22046553 -4.40272002 0.01202381 0 0 Z " fill="#F9F8F6" transform="translate(840.7158203125,467.759765625)"/>
<path d="M0 0 C0.66 0 1.32 0 2 0 C2.44085937 1.53914063 2.44085937 1.53914063 2.890625 3.109375 C5.42263355 11.79584192 8.11291128 20.41739024 11 28.9921875 C11.2653656 29.7812146 11.5307312 30.5702417 11.80413818 31.38317871 C13.14679738 35.36907522 14.49838035 39.35171744 15.86035156 43.33105469 C16.37059399 44.8378394 16.88069095 46.34467339 17.390625 47.8515625 C17.62378418 48.52404022 17.85694336 49.19651794 18.09716797 49.88937378 C19.91541596 55.28916249 20.85668686 60.28343429 22 66 C7.81 66 -6.38 66 -21 66 C-19.87506169 58.12543181 -19.87506169 58.12543181 -18.80419922 55.05029297 C-18.56638229 54.35716003 -18.32856537 53.6640271 -18.08354187 52.94989014 C-17.82651993 52.22134827 -17.56949799 51.4928064 -17.3046875 50.7421875 C-17.03610428 49.96433899 -16.76752106 49.18649048 -16.49079895 48.3850708 C-15.62451213 45.87971586 -14.74976164 43.37740688 -13.875 40.875 C-12.98373618 38.30326351 -12.09464471 35.73078214 -11.20555115 33.15829468 C-10.62001589 31.46485603 -10.03372748 29.7716776 -9.44667053 28.07876587 C-7.14628469 21.44290964 -4.89620819 14.7920043 -2.6875 8.125 C-2.40438965 7.27147949 -2.1212793 6.41795898 -1.82958984 5.53857422 C-1.2183013 3.69285424 -0.60886482 1.84652094 0 0 Z " fill="#F8F7F5" transform="translate(685,478)"/>
<path d="M0 0 C0.99 0.33 1.98 0.66 3 1 C2.01 1.495 2.01 1.495 1 2 C1.33 19.49 1.66 36.98 2 55 C1.01 55 0.02 55 -1 55 C-1.02526605 47.32788798 -1.04283123 39.6557866 -1.05493164 31.98364258 C-1.05997377 29.37133381 -1.06680725 26.75902789 -1.07543945 24.14672852 C-1.08751036 20.40119732 -1.09322935 16.65570328 -1.09765625 12.91015625 C-1.10281754 11.73413345 -1.10797882 10.55811066 -1.11329651 9.34645081 C-1.11340981 7.72488319 -1.11340981 7.72488319 -1.11352539 6.07055664 C-1.115746 5.11347305 -1.11796661 4.15638947 -1.12025452 3.17030334 C-1 1 -1 1 0 0 Z " fill="#D4D6D5" transform="translate(828,468)"/>
<path d="M0 0 C13.86 0 27.72 0 42 0 C42.66 1.65 43.32 3.3 44 5 C43.34 5 42.68 5 42 5 C41.505 4.01 41.505 4.01 41 3 C28.46 2.67 15.92 2.34 3 2 C4.32 4.64 5.64 7.28 7 10 C6.67 10.66 6.34 11.32 6 12 C4.99747693 10.18889433 3.99804504 8.37607722 3 6.5625 C2.443125 5.55316406 1.88625 4.54382813 1.3125 3.50390625 C0 1 0 1 0 0 Z " fill="#040808" transform="translate(460,435)"/>
<path d="M0 0 C1.87295532 -0.36076355 1.87295532 -0.36076355 4.17431641 -0.34057617 C5.46542831 -0.34023628 5.46542831 -0.34023628 6.78262329 -0.33988953 C7.71287323 -0.32440567 8.64312317 -0.30892181 9.6015625 -0.29296875 C10.55316254 -0.28872391 11.50476257 -0.28447906 12.48519897 -0.28010559 C15.53208414 -0.26327896 18.57831391 -0.22561954 21.625 -0.1875 C23.68749046 -0.17245831 25.74999127 -0.15876901 27.8125 -0.14648438 C32.8752535 -0.11336239 37.93751554 -0.06155284 43 0 C41.68 2.31 40.36 4.62 39 7 C38.505 6.01 38.505 6.01 38 5 C38.33 4.34 38.66 3.68 39 3 C19.695 2.505 19.695 2.505 0 2 C-0.33 3.65 -0.66 5.3 -1 7 C-1.625 5.1875 -1.625 5.1875 -2 3 C-1.34 2.01 -0.68 1.02 0 0 Z " fill="#030707" transform="translate(582,435)"/>
<path d="M0 0 C0.33 0.66 0.66 1.32 1 2 C13.54 1.67 26.08 1.34 39 1 C39.495 2.485 39.495 2.485 40 4 C26.8 4 13.6 4 0 4 C0 2.68 0 1.36 0 0 Z " fill="#0D1111" transform="translate(731,615)"/>
<path d="M0 0 C5.29362869 4.33115075 10.0868644 9.0237029 14.82324219 13.94824219 C17.19878874 16.37928497 18.72625077 17.90875026 22 19 C21.34 19.99 20.68 20.98 20 22 C17.1453424 19.19469153 14.29722769 16.38292304 11.45507812 13.56494141 C10.48681462 12.60675044 9.51676574 11.65036018 8.54492188 10.69580078 C7.1502903 9.3253618 5.76253479 7.94793633 4.375 6.5703125 C3.53710938 5.74289551 2.69921875 4.91547852 1.8359375 4.06298828 C0 2 0 2 0 0 Z " fill="#028A3E" transform="translate(232,671)"/>
<path d="M0 0 C0.66 0 1.32 0 2 0 C2.33 2.64 2.66 5.28 3 8 C1.02 8.99 -0.96 9.98 -3 11 C-2.01 7.37 -1.02 3.74 0 0 Z " fill="#EEEFEE" transform="translate(685,478)"/>
<path d="M0 0 C2 3 2 3 1.5390625 5.48046875 C1.23742187 6.37378906 0.93578125 7.26710938 0.625 8.1875 C0.32851563 9.08855469 0.03203125 9.98960937 -0.2734375 10.91796875 C-0.63308594 11.94857422 -0.63308594 11.94857422 -1 13 C-2.53690745 10.58959839 -3.09752136 9.49917715 -2.5390625 6.640625 C-2.23742187 5.85171875 -1.93578125 5.0628125 -1.625 4.25 C-1.32851563 3.45078125 -1.03203125 2.6515625 -0.7265625 1.828125 C-0.48679687 1.22484375 -0.24703125 0.6215625 0 0 Z " fill="#191D1E" transform="translate(620,557)"/>
<path d="M0 0 C2 1 2 1 2.8515625 3.50390625 C3.10679687 4.51324219 3.36203125 5.52257812 3.625 6.5625 C3.88539063 7.57441406 4.14578125 8.58632813 4.4140625 9.62890625 C4.60742188 10.41136719 4.80078125 11.19382812 5 12 C4.01 12 3.02 12 2 12 C1.34 8.04 0.68 4.08 0 0 Z " fill="#E5E5E5" transform="translate(699,521)"/>
<path d="M0 0 C0.33 0 0.66 0 1 0 C1.50310058 1.7907985 2.00238628 3.58266911 2.5 5.375 C2.7784375 6.37273437 3.056875 7.37046875 3.34375 8.3984375 C4 11 4 11 4 13 C3.34 13 2.68 13 2 13 C1.46605821 11.5882217 0.94834896 10.17029756 0.4375 8.75 C0.14746094 7.96109375 -0.14257812 7.1721875 -0.44140625 6.359375 C-1.04522837 3.80896548 -0.8473932 2.44677771 0 0 Z " fill="#EDEDED" transform="translate(730,491)"/>
<path d="M0 0 C1.15957207 3.47871621 0.77456651 4.34219645 -0.4375 7.6875 C-0.86869141 8.89986328 -0.86869141 8.89986328 -1.30859375 10.13671875 C-1.53675781 10.75160156 -1.76492188 11.36648438 -2 12 C-2.66 11.34 -3.32 10.68 -4 10 C-3.52449439 8.51965236 -3.04448784 7.04074979 -2.5625 5.5625 C-2.29566406 4.73878906 -2.02882813 3.91507813 -1.75390625 3.06640625 C-1 1 -1 1 0 0 Z " fill="#F0F1F0" transform="translate(617,563)"/>
<path d="M0 0 C0.66 0 1.32 0 2 0 C6 6.625 6 6.625 6 10 C5.34 10 4.68 10 4 10 C3.32845067 8.71086513 2.66291141 7.41859796 2 6.125 C1.62875 5.40570313 1.2575 4.68640625 0.875 3.9453125 C0 2 0 2 0 0 Z " fill="#EBECEB" transform="translate(527,485)"/>
<path d="M0 0 C0.99 0 1.98 0 3 0 C3 0.99 3 1.98 3 3 C3.66 3 4.32 3 5 3 C5.625 4.875 5.625 4.875 6 7 C5.34 7.66 4.68 8.32 4 9 C2.68 6.03 1.36 3.06 0 0 Z " fill="#1F2324" transform="translate(466,447)"/>
<path d="M0 0 C0.66 0 1.32 0 2 0 C1.7452486 1.31571603 1.47065859 2.62760376 1.1875 3.9375 C1.03667969 4.66839844 0.88585937 5.39929688 0.73046875 6.15234375 C0.48941406 6.76207031 0.24835937 7.37179687 0 8 C-0.99 8.33 -1.98 8.66 -3 9 C-2.44271087 5.65626525 -1.64826111 2.96687001 0 0 Z " fill="#191F1F" transform="translate(674,506)"/>
<path d="M0 0 C0.99 0.495 0.99 0.495 2 1 C2.59355614 3.64860427 2.74209269 6.29197322 3 9 C2.01 9 1.02 9 0 9 C0 6.03 0 3.06 0 0 Z " fill="#1B1F1F" transform="translate(921,478)"/>
<path d="M0 0 C0.33 0.66 0.66 1.32 1 2 C-1.3125 4.5 -1.3125 4.5 -4 7 C-4.99 7 -5.98 7 -7 7 C-4.69 4.69 -2.38 2.38 0 0 Z " fill="#048A40" transform="translate(351,523)"/>
</svg>
